<?xml version="1.0" ?><!DOCTYPE svg  PUBLIC '-//W3C//DTD SVG 1.1//EN'  'http://www.w3.org/Graphics/SVG/1.1/DTD/svg11.dtd'><svg enable-background="new 0 0 128 128" id="Слой_1" version="1.1" viewBox="0 0 128 128" xml:space="preserve" xmlns="http://www.w3.org/2000/svg" xmlns:xlink="http://www.w3.org/1999/xlink"><g><g><g><g><path d="M98.7,109.9l-21.1-8.4H50.4l-23.5,9.3c-4.7,1.9-8.5,5.7-10.3,10.4l-0.9,2.4h96.7l0,0      C109.9,117.4,105,112.4,98.7,109.9z" fill="#514F5A"/></g></g></g></g><g><g><g><g><rect fill="#FFFFFF" height="22.2" width="6.3" x="54.5" y="101.5"/></g></g></g><g><g><g><rect fill="#FFFFFF" height="22.2" width="6.3" x="67.2" y="101.5"/></g></g></g><g><g><g><polygon fill="#FFFFFF" points="79.8,123.7 86.2,123.7 86.2,104.9 79.8,102.4     "/></g></g></g><g><g><g><path d="M92.5,107.4v16.2h6.3v-13.7c-0.1,0-0.1,0-0.2-0.1L92.5,107.4z" fill="#FFFFFF"/></g></g></g><g><g><g><polygon fill="#FFFFFF" points="29.1,123.7 35.5,123.7 35.5,107.4 29.1,109.9     "/></g></g></g><g><g><g><polygon fill="#FFFFFF" points="41.8,123.7 48.2,123.7 48.2,102.4 41.8,104.9     "/></g></g></g></g><g><g><g><g><path d="M34.2,112.5l24.5-11h-8.4l-23.5,9.3c-4.7,1.9-8.5,5.7-10.3,10.4l-0.9,2.4h8.7l0,0      C25.9,118.7,29.5,114.7,34.2,112.5z" fill="#FFFFFF"/></g></g></g></g><g><g><g><g><g><g><path d="M77.5,93.1l0,12.3c-3.9,13.6-23.1,13.6-27.1,0l0-12.3" fill="#F0D6BF"/></g></g></g></g><g><g><g><g><path d="M50.4,103C50.4,103,50.4,103,50.4,103c-0.8,0-1.5-0.7-1.5-1.5l0.1-8.4c0-0.8,0.7-1.5,1.5-1.5        c0,0,0,0,0,0c0.8,0,1.5,0.7,1.5,1.5l-0.1,8.4C51.9,102.3,51.2,103,50.4,103z" fill="#62355C"/></g></g></g><g><g><g><path d="M77.6,103c-0.8,0-1.5-0.7-1.5-1.5L76,93.2c0-0.8,0.7-1.5,1.5-1.5c0.8,0,1.5,0.7,1.5,1.5l0.1,8.4        C79.1,102.3,78.5,103,77.6,103C77.6,103,77.6,103,77.6,103z" fill="#62355C"/></g></g></g></g></g><g><g><g><path d="M15.6,125.2c-0.2,0-0.4,0-0.5-0.1c-0.8-0.3-1.2-1.2-0.9-1.9l0.9-2.4c2-5.1,6.1-9.2,11.2-11.3l23.5-9.3      c0.8-0.3,1.6,0.1,1.9,0.8c0.3,0.8-0.1,1.6-0.8,1.9l-23.5,9.3c-4.3,1.7-7.8,5.2-9.5,9.6l-0.9,2.4      C16.8,124.8,16.2,125.2,15.6,125.2z" fill="#62355C"/></g></g></g><g><g><g><path d="M112.4,125.2c-0.6,0-1.2-0.4-1.4-1c-2.3-5.9-6.9-10.6-12.8-12.9l-21.1-8.4c-0.8-0.3-1.1-1.2-0.8-1.9      c0.3-0.8,1.2-1.1,1.9-0.8l21.1,8.4c6.6,2.6,11.9,8,14.5,14.6c0.3,0.8-0.1,1.6-0.9,1.9C112.7,125.1,112.5,125.2,112.4,125.2z" fill="#62355C"/></g></g></g><g><g><g><path d="M64,117.1c-7.1,0-13-4.4-15-11.3c0-0.1-0.1-0.3-0.1-0.4l-0.1-3.9c0-0.8,0.6-1.5,1.5-1.5c0,0,0,0,0,0      c0.8,0,1.5,0.7,1.5,1.5l0.1,3.7c2,6.6,7.7,8.9,12,8.9s10-2.3,12-8.9l0.1-3.7c0-0.8,0.7-1.5,1.5-1.5c0,0,0,0,0,0      c0.8,0,1.5,0.7,1.5,1.5l-0.1,3.9c0,0.1,0,0.3-0.1,0.4C77,112.7,71.1,117.1,64,117.1z" fill="#F7BD35"/></g></g></g><g><g><g><g><g><g><g><path d="M100.5,48.6c0-29.7-14.9-45-36.5-45s-36.5,15.3-36.5,45C20.4,49.1,22,65,30,64.1          C40.2,92.5,54.4,100,64,100s23.8-7.5,34-35.9C106,65,107.6,49.1,100.5,48.6z" fill="#F0D6BF"/></g></g></g><g><g><g><path d="M101,47C100.4,18.4,85.7,3.6,64.4,3.6c-0.1,0-0.1,0-0.2,0c-0.1,0-0.1,0-0.2,0          C42.7,3.6,28,18.4,27.5,47l2.1,9.6c0.3,1.1,1.3,2,2.4,2h0c3.8-3.4-1.9-18,5.2-24c17.1-14.6,28.8,13.9,54,7          c6.9-1.9,1.4,13.6,5.2,17l0,0c1.2,0,2.2-0.8,2.4-2L101,47z" fill="#C88B79"/></g></g></g><g><g><g><path d="M96.4,60.1c-0.4,0-0.7-0.1-1-0.4c-2.1-1.9-2-5.8-1.9-9.9c0.1-2.6,0.1-6.1-0.7-6.8          c-0.2-0.2-0.8-0.1-1.1,0c-12.7,3.5-22-1.6-30.2-6c-8.4-4.6-15.1-8.2-23.2-1.3c-3.5,3-3.3,8.8-3.2,14c0.1,4.4,0.2,8.1-1.9,10          c-0.6,0.6-1.6,0.5-2.1-0.1C30.4,59,30.4,58,31,57.5c1.1-1,1-4.4,0.9-7.7c-0.1-5.5-0.3-12.4,4.3-16.3          c9.7-8.2,17.9-3.8,26.6,0.9c7.7,4.2,16.5,8.9,28,5.8c1.5-0.4,2.7-0.2,3.7,0.5c2.1,1.6,2,5.3,1.9,9.2c-0.1,2.9-0.2,6.6,1,7.6          c0.6,0.6,0.7,1.5,0.1,2.1C97.2,59.9,96.8,60.1,96.4,60.1z" fill="#62355C"/></g></g></g><g><g><g><path d="M64,101.5c-6.7,0-23.5-3.6-35.4-36.9c-0.3-0.8,0.1-1.6,0.9-1.9c0.8-0.3,1.6,0.1,1.9,0.9          C42.7,95.1,58,98.5,64,98.5s21.3-3.4,32.6-34.9c0.3-0.8,1.1-1.2,1.9-0.9c0.8,0.3,1.2,1.1,0.9,1.9          C87.5,97.9,70.7,101.5,64,101.5z" fill="#62355C"/></g></g></g></g><g opacity="0.2"><g><g><g><path d="M100.5,48.6c0-29.7-14.9-45-36.5-45c-0.5,0-1,0-1.5,0c-0.4,0-0.8,0-1.2,0.1C81.4,5,95,20.2,95,48.6          c-0.3,6.4-0.8,10.1-2.5,15.5c-9.7,27-20.5,35.1-29.9,35.8c0,0,0,0,0,0c0.5,0,0.9,0.1,1.4,0.1c9.6,0,23.8-7.5,34-35.9          C106,65,107.6,49.1,100.5,48.6z" fill="#62345B"/></g></g></g></g><g><g><g><g><g><path d="M29.4,65.7c-2.3,0-4.3-1.1-5.7-3.1c-2.3-3.2-2.8-8.4-1.2-11.8c1-2.2,2.8-3.4,4.9-3.6           c0.8-0.1,1.5,0.6,1.6,1.4s-0.6,1.5-1.4,1.6c-1.1,0.1-1.9,0.7-2.4,1.9c-1.2,2.5-0.7,6.5,1,8.8c1,1.4,2.2,2,3.8,1.8           c0.8-0.1,1.6,0.5,1.7,1.3c0.1,0.8-0.5,1.6-1.3,1.7C29.9,65.7,29.6,65.7,29.4,65.7z" fill="#62345B"/></g></g></g></g><g><g><g><g><path d="M98.6,65.7c-0.3,0-0.5,0-0.8,0c-0.8-0.1-1.4-0.8-1.3-1.7c0.1-0.8,0.8-1.4,1.7-1.3           c1.5,0.2,2.8-0.5,3.8-1.8c1.7-2.3,2.1-6.4,1-8.8c-0.5-1.2-1.4-1.8-2.4-1.9C99.6,50,99,49.3,99,48.5           c0.1-0.8,0.8-1.4,1.6-1.4c2.2,0.2,3.9,1.4,4.9,3.6c1.6,3.4,1.1,8.6-1.2,11.8C102.9,64.6,100.9,65.7,98.6,65.7z" fill="#62345B"/></g></g></g></g><g><g><g><g><path d="M100.5,50.1c-0.8,0-1.5-0.7-1.5-1.5C99,21.4,85.9,5.1,64,5.1S29,21.4,29,48.6           c0,0.8-0.7,1.5-1.5,1.5S26,49.4,26,48.6C26,19.5,40.2,2.1,64,2.1s38,17.4,38,46.5C102,49.4,101.4,50.1,100.5,50.1z" fill="#62345B"/></g></g></g></g></g></g></g></g></g><g><g><g><g><g><path d="       M50.3,100.5" fill="none" stroke="#F7BD35" stroke-linecap="round" stroke-linejoin="round" stroke-miterlimit="10" stroke-width="3"/></g></g></g><g><g><g><path d="       M77.7,100.5" fill="none" stroke="#F7BD35" stroke-linecap="round" stroke-linejoin="round" stroke-miterlimit="10" stroke-width="3"/></g></g></g></g><g><g><g><path d="M90.4,125.1H75.6c-0.8,0-1.5-0.7-1.5-1.5s0.7-1.5,1.5-1.5h14.8c0.8,0,1.5,0.7,1.5,1.5      S91.2,125.1,90.4,125.1z" fill="#F7BD35"/></g></g></g></g></svg>